<svg height="47.885" width="48" xmlns="http://www.w3.org/2000/svg"><g fill="none" fill-rule="evenodd"><path d="m6.868 18.78c-1.509 0-2.805-.246-3.89-.736-1.082-.49-2.075-1.234-2.978-2.231l2.654-2.606c.59.671 1.244 1.191 1.964 1.561s1.557.555 2.51.555c.868 0 1.54-.155 2.017-.465s.715-.74.715-1.29c0-.498-.156-.902-.468-1.212s-.724-.576-1.236-.8a20.524 20.524 0 0 0 -1.691-.644 21.762 21.762 0 0 1 -1.834-.71 7.67 7.67 0 0 1 -1.678-1.006 4.55 4.55 0 0 1 -1.236-1.522c-.312-.61-.468-1.38-.468-2.309 0-1.117.273-2.08.82-2.889.546-.808 1.304-1.423 2.276-1.844.971-.421 2.09-.632 3.355-.632 1.283 0 2.458.224 3.525.67 1.067.448 1.947 1.058 2.64 1.832l-2.653 2.606c-.555-.568-1.114-.99-1.678-1.264-.564-.276-1.201-.413-1.912-.413s-1.275.133-1.691.4c-.417.266-.625.649-.625 1.148 0 .464.156.838.469 1.122.312.283.724.528 1.235.735.512.206 1.076.413 1.691.619.616.206 1.228.447 1.835.722a7.496 7.496 0 0 1 1.678 1.045 4.67 4.67 0 0 1 1.235 1.6c.313.644.469 1.44.469 2.385 0 1.737-.625 3.1-1.873 4.089-1.25.989-2.975 1.483-5.178 1.483zm9.652-.285v-18.211h4.085v18.211zm3.122 0v-3.508h10.069v3.508zm0-7.61v-3.377h9.158v3.379h-9.158zm0-7.119v-3.482h9.938v3.482zm12.878 14.73v-18.213h4.085v18.211h-4.085zm11.37 0v-18.213h4.11v18.211h-4.11zm-8.924-7.61v-3.508h10.276v3.508z" fill="#5741d7" fill-rule="nonzero"/><path d="m16.5 22.5h13" stroke="#34c759" stroke-linecap="square" stroke-width="2"/><g fill="#5741d7" fill-rule="nonzero"><path d="m6.826 36.39a5.04 5.04 0 0 1 -1.906-.355 4.656 4.656 0 0 1 -1.535-1 4.608 4.608 0 0 1 -1.02-1.502 4.686 4.686 0 0 1 -.365-1.851c0-.662.121-1.28.364-1.85a4.513 4.513 0 0 1 1.015-1.49 4.68 4.68 0 0 1 1.528-.987 5.04 5.04 0 0 1 1.906-.355c.728 0 1.377.116 1.945.348a4.74 4.74 0 0 1 1.49.955l-1.368 1.367a2.58 2.58 0 0 0 -.878-.606 3.012 3.012 0 0 0 -1.19-.22c-.399 0-.765.067-1.1.2-.333.134-.62.325-.858.574-.238.25-.425.55-.56.903-.133.353-.2.74-.2 1.16 0 .43.067.822.2 1.175.135.352.322.653.56.902.239.25.525.443.859.58.334.138.7.207 1.099.207.468 0 .876-.073 1.223-.22.347-.145.646-.347.897-.605l1.38 1.367a5.07 5.07 0 0 1 -1.516.954c-.568.233-1.225.349-1.971.349zm4.605-.142v-9.106h2.042v9.106zm5.684 0v-9.106h2.056v9.106zm-4.461-3.805v-1.754h5.138v1.754zm8.273 3.805v-9.106h2.042v9.106zm1.56 0v-1.754h5.035v1.754h-5.034zm0-3.805v-1.69h4.58v1.69zm0-3.56v-1.741h4.97v1.741zm10.629 7.507a5.04 5.04 0 0 1 -1.905-.355 4.656 4.656 0 0 1 -1.535-1 4.608 4.608 0 0 1 -1.021-1.502 4.686 4.686 0 0 1 -.365-1.851c0-.662.122-1.28.365-1.85a4.513 4.513 0 0 1 1.014-1.49c.434-.422.943-.75 1.529-.987a5.04 5.04 0 0 1 1.904-.355c.729 0 1.377.116 1.945.348a4.74 4.74 0 0 1 1.49.955l-1.367 1.367a2.58 2.58 0 0 0 -.878-.606 3.012 3.012 0 0 0 -1.19-.22c-.4 0-.766.067-1.1.2-.334.134-.62.325-.858.574-.239.25-.425.55-.56.903-.134.353-.201.74-.201 1.16 0 .43.067.822.201 1.175.135.352.321.653.56.902.238.25.524.443.858.58.334.138.7.207 1.1.207.468 0 .875-.073 1.222-.22a2.69 2.69 0 0 0 .898-.605l1.379 1.367a5.07 5.07 0 0 1 -1.516.954c-.568.233-1.225.349-1.97.349zm10.16-.142-3.721-4.748 3.603-4.36h2.523l-4.058 4.734v-.824l4.188 5.198h-2.536zm-5.555 0v-9.106h2.043v9.106h-2.044z"/><path d="m10.35 48c-.48 0-.92-.083-1.325-.25a3.326 3.326 0 0 1 -1.064-.694 3.148 3.148 0 0 1 -.711-1.036 3.235 3.235 0 0 1 -.25-1.28c0-.463.084-.89.251-1.282a3.178 3.178 0 0 1 1.756-1.713 3.504 3.504 0 0 1 1.325-.245c.473 0 .911.082 1.315.245a3.25 3.25 0 0 1 1.06.685c.302.294.537.639.705 1.033.168.395.251.824.251 1.287 0 .457-.083.883-.251 1.278a3.165 3.165 0 0 1 -.7 1.033c-.3.293-.652.523-1.056.69-.404.166-.84.249-1.306.249zm-.018-1.273c.377 0 .708-.083.992-.25a1.7 1.7 0 0 0 .66-.699c.156-.3.234-.645.234-1.037 0-.297-.045-.565-.135-.806a1.8 1.8 0 0 0 -.386-.623 1.677 1.677 0 0 0 -.598-.4 2.054 2.054 0 0 0 -.767-.139c-.377 0-.708.082-.993.245a1.681 1.681 0 0 0 -.66.686c-.155.294-.233.64-.233 1.037 0 .297.045.567.135.81.09.244.217.453.381.628.165.175.364.31.597.405.234.095.491.143.773.143zm4.23 1.166v-6.286h.987l.422 1.255v5.031h-1.41zm4.373 0-3.736-4.746.35-1.54 3.736 4.746zm0 0-.377-1.255v-5.031h1.41v6.286zm2.254 0v-6.286h1.41v6.286zm1.086 0v-1.229h3.135v1.23h-3.135zm3.952 0v-6.286h1.41v6.286zm2.631 0v-6.286h.988l.422 1.255v5.031zm4.373 0-3.735-4.746.35-1.54 3.736 4.746-.35 1.54zm0 0-.377-1.255v-5.031h1.41v6.286zm2.254 0v-6.286h1.41v6.286zm1.078 0v-1.21h3.475v1.21zm0-2.627v-1.166h3.161v1.166h-3.16zm0-2.457v-1.202h3.43v1.202z"/></g></g></svg>