<svg viewBox="0 0 800 800" xmlns="http://www.w3.org/2000/svg"><path d="M798 2v796H2V2zm2-2H0v800h800z" fill="black"/><path d="M40 0v800M80 0v800M120 0v800M160 0v800M200 0v800M240 0v800M280 0v800M320 0v800M360 0v800M400 0v800M440 0v800M480 0v800M520 0v800M560 0v800M600 0v800M640 0v800M680 0v800M720 0v800M760 0v800M0 760h800M0 720h800M0 680h800M0 640h800M0 600h800M0 560h800M0 520h800M0 480h800M0 440h800M0 400h800M0 360h800M0 320h800M0 280h800M0 240h800M0 200h800M0 160h800M0 120h800M0 80h800M0 40h800" fill="none" stroke="#000" stroke-miterlimit="10" stroke-width="2"/><circle cx="400" cy="400" r="10" fill="black"/></svg>
