<?xml version="1.0" encoding="UTF-8"?>
<svg width="250px" height="250px" viewBox="0 0 250 250" version="1.1" xmlns="http://www.w3.org/2000/svg" xmlns:xlink="http://www.w3.org/1999/xlink">
    <title>sehtestzeichen/apfel</title>
    <g id="sehtestzeichen/apfel" stroke="none" stroke-width="1" fill="none" fill-rule="evenodd">
        <path d="M118.763848,65.8296734 L118.200823,65.3318059 C103.476359,52.4922529 87.6757646,47.6924972 71.3625472,52.1163457 C43.4720659,59.6797382 33.0804173,81.648022 39.1905128,111.00766 C39.4743187,112.371376 39.835481,113.875486 40.2660233,115.498142 L40.8154659,117.500833 C41.009374,118.186432 41.2138723,118.8896 41.4284504,119.608939 L42.1019138,121.81407 L42.832793,124.107836 L43.6180251,126.481848 L44.4545472,128.927717 C44.5980715,129.340884 44.7436053,129.756695 44.8910848,130.174976 L45.7987987,132.712899 L46.7501451,135.301704 L47.742061,137.933003 L48.7714835,140.598405 L49.8353496,143.28952 C50.0153608,143.739716 50.1966795,144.190634 50.3792418,144.642099 L51.4890303,147.356055 L52.6256048,150.074751 C52.8170959,150.527796 53.0095755,150.980688 53.2029797,151.433254 L54.3739905,154.14333 L55.56413,156.837171 C55.7639104,157.284326 55.9643603,157.730454 56.1654158,158.175382 L57.3785053,160.829142 C57.5817279,161.268568 57.7854285,161.706443 57.9895432,162.142594 L59.2186911,164.737396 L60.4547157,167.282406 C60.6611228,167.701958 60.8676887,168.119087 61.0743497,168.533617 L61.6945543,169.769234 C67.6349999,181.523206 73.4324233,190.817177 79.0251009,196.968573 C82.9170527,201.249338 86.8806856,204.269514 91.4563811,205.775231 L92.1478695,205.989018 C98.6072647,207.858167 105.198314,206.19787 110.034928,201.356693 L110.170548,201.21332 L110.572882,200.845376 C114.072275,197.752437 119.841914,195.566849 125.157799,195.261481 L125.844527,195.232597 L125.90519,195.258458 C126.073139,195.331096 126.270444,195.422189 126.494874,195.531999 L127.473865,196.037102 L128.352695,196.526855 L129.438445,197.167381 L131.814858,198.621581 L134.064411,200.012042 L136.023463,201.198995 C140.72992,204.004172 144.085045,205.619615 147.944463,206.648734 C155.835602,208.752916 163.636858,207.05194 168.994383,200.474632 L169.91654,199.313666 L176.894895,190.935346 C181.53611,185.262888 185.672119,179.774226 189.638772,173.82211 C209.960474,143.328606 218.459766,111.841204 208.025715,79.7804796 L207.640801,78.5977547 L207.029885,77.5135837 C185.00292,38.4231 153.122404,34.9049565 119.447454,65.2102035 L118.763848,65.8296734 Z M162.518458,70.0491996 C169.647569,70.2941409 176.808783,75.7030174 184.080466,87.9698274 L184.49003,88.6735829 L184.818591,89.7739329 C191.322561,112.516865 184.6733,136.015148 168.706271,159.974295 C165.674011,164.52432 162.492111,168.812599 158.956872,173.219999 L156.554882,176.160396 L152.104345,181.486196 L151.572756,181.212751 L150.668745,180.720647 L149.655203,180.143152 L148.526343,179.476722 L147.276378,178.717819 L143.664753,176.490942 L141.478103,175.169517 L140.160814,174.395402 L138.941568,173.702024 L137.80807,173.08533 L136.748031,172.541265 C136.576796,172.456415 136.40811,172.374421 136.241716,172.295201 L135.268815,171.852477 C132.736843,170.757004 130.660626,170.328118 127.99123,170.219835 L126.960352,170.193581 L125.899395,170.193271 C115.977186,170.304106 105.530756,173.590829 97.4253322,179.330789 L97.11225,179.556042 L96.7637948,179.147548 C95.4129081,177.535256 93.9497567,175.516702 92.4046548,173.140817 L91.3627786,171.504492 L90.2986168,169.765512 C89.9404036,169.169101 89.5788089,168.556118 89.2141652,167.927099 L88.11142,165.992475 C87.5558066,165.001647 86.9940815,163.975948 86.4273676,162.91719 L85.2876205,160.756132 L84.1365656,158.510138 L83.0102731,156.250594 C82.8226444,155.869075 82.6351012,155.485208 82.4477063,155.099172 L81.3256222,152.758335 C81.1390731,152.364328 80.9527984,151.968505 80.7668612,151.571043 L79.6557918,149.16802 L78.5558467,146.734154 L77.4700511,144.277937 L76.4014299,141.807862 C76.2249256,141.3955 76.049263,140.982914 75.874505,140.570281 L74.8373174,138.09534 L73.8248667,135.627771 L72.3591897,131.958813 L71.4218158,129.546824 L70.5197665,127.171928 L69.6560667,124.842617 L68.8337415,122.567383 L68.0558158,120.354719 L67.3253147,118.213115 L66.6452633,116.151064 L66.0186864,114.177058 C65.9188812,113.855866 65.8214302,113.538696 65.7263963,113.225725 L65.1857033,111.399709 L64.7060474,109.682968 C64.3326067,108.300241 64.0258973,107.040187 63.7937971,105.924921 L63.4515847,104.184103 C60.45251,87.935364 64.6560195,79.8801921 77.9614548,76.2719995 C87.362602,73.722579 97.4073185,78.160233 109.146186,91.7920047 L118.379775,102.51452 L127.950891,92.0899468 C141.790133,77.0166583 153.363214,70.0404631 162.009289,70.0404631 L162.518458,70.0491996 Z" id="Path-5" fill="#000000" fill-rule="nonzero"></path>
    </g>
</svg>