<?xml version="1.0" encoding="UTF-8"?>
<svg width="250px" height="250px" viewBox="0 0 250 250" version="1.1" xmlns="http://www.w3.org/2000/svg" xmlns:xlink="http://www.w3.org/1999/xlink">
    <title>sehtestzeichen/astigmatismus-kreise</title>
    <g id="sehtestzeichen/astigmatismus-kreise" stroke="none" stroke-width="1" fill="none" fill-rule="evenodd">
        <path d="M56.7226891,2.10084034 C26.6043417,2.10084034 2.10084034,26.6043417 2.10084034,56.7226891 C2.10084034,86.8410364 26.6043417,111.344538 56.7226891,111.344538 C86.8410364,111.344538 111.344538,86.8410364 111.344538,56.7226891 C111.344538,26.6043417 86.8410364,2.10084034 56.7226891,2.10084034 M56.7226891,113.445378 C25.4453782,113.445378 -1.42108547e-13,88 -1.42108547e-13,56.7226891 C-1.42108547e-13,25.4453782 25.4453782,0 56.7226891,0 C88,0 113.445378,25.4453782 113.445378,56.7226891 C113.445378,88 88,113.445378 56.7226891,113.445378" id="Fill-1" fill="#000000"></path>
        <polygon id="Fill-3" fill="#000000" points="1.05042017 57.429972 112.394958 57.429972 112.394958 56.0294118 1.05042017 56.0294118"></polygon>
        <polygon id="Fill-5" fill="#000000" points="1.32563025 62.9971989 112.119048 62.9971989 112.119048 61.5966387 1.32563025 61.5966387"></polygon>
        <polygon id="Fill-6" fill="#000000" points="2.16456583 68.5644258 111.280812 68.5644258 111.280812 67.1638655 2.16456583 67.1638655"></polygon>
        <polygon id="Fill-7" fill="#000000" points="3.59943978 74.1316527 109.845238 74.1316527 109.845238 72.7310924 3.59943978 72.7310924"></polygon>
        <polygon id="Fill-8" fill="#000000" points="5.68277311 79.6988796 107.762605 79.6988796 107.762605 78.2983193 5.68277311 78.2983193"></polygon>
        <polygon id="Fill-9" fill="#000000" points="8.49859944 85.2661064 104.946078 85.2661064 104.946078 83.8655462 8.49859944 83.8655462"></polygon>
        <polygon id="Fill-10" fill="#000000" points="12.1813725 90.8333333 101.264006 90.8333333 101.264006 89.4327731 12.1813725 89.4327731"></polygon>
        <polygon id="Fill-11" fill="#000000" points="16.964986 96.4005602 96.4796919 96.4005602 96.4796919 95 16.964986 95"></polygon>
        <polygon id="Fill-12" fill="#000000" points="23.3151261 101.967787 90.1309524 101.967787 90.1309524 100.567227 23.3151261 100.567227"></polygon>
        <polygon id="Fill-13" fill="#000000" points="32.4278711 107.535714 81.0168067 107.535714 81.0168067 106.135154 32.4278711 106.135154"></polygon>
        <polygon id="Fill-14" fill="#000000" points="1.32563025 51.8627451 112.119048 51.8627451 112.119048 50.4621849 1.32563025 50.4621849"></polygon>
        <polygon id="Fill-15" fill="#000000" points="2.16456583 46.2955182 111.280812 46.2955182 111.280812 44.894958 2.16456583 44.894958"></polygon>
        <polygon id="Fill-16" fill="#000000" points="3.59943978 40.7282913 109.845238 40.7282913 109.845238 39.3277311 3.59943978 39.3277311"></polygon>
        <polygon id="Fill-17" fill="#000000" points="5.68277311 35.1610644 107.762605 35.1610644 107.762605 33.7605042 5.68277311 33.7605042"></polygon>
        <polygon id="Fill-18" fill="#000000" points="8.49859944 29.5938375 104.946078 29.5938375 104.946078 28.1932773 8.49859944 28.1932773"></polygon>
        <polygon id="Fill-19" fill="#000000" points="12.1813725 24.0266106 101.264006 24.0266106 101.264006 22.6260504 12.1813725 22.6260504"></polygon>
        <polygon id="Fill-20" fill="#000000" points="16.964986 18.4593838 96.4796919 18.4593838 96.4796919 17.0588235 16.964986 17.0588235"></polygon>
        <polygon id="Fill-21" fill="#000000" points="23.3151261 12.8921569 90.1309524 12.8921569 90.1309524 11.4915966 23.3151261 11.4915966"></polygon>
        <polygon id="Fill-22" fill="#000000" points="32.4278711 7.32492997 81.0168067 7.32492997 81.0168067 5.92436975 32.4278711 5.92436975"></polygon>
        <path d="M193.277311,2.10084034 C163.158263,2.10084034 138.655462,26.6043417 138.655462,56.7226891 C138.655462,86.8410364 163.158263,111.344538 193.277311,111.344538 C223.396359,111.344538 247.89916,86.8410364 247.89916,56.7226891 C247.89916,26.6043417 223.396359,2.10084034 193.277311,2.10084034 M193.277311,113.445378 C162.0007,113.445378 136.554622,88 136.554622,56.7226891 C136.554622,25.4453782 162.0007,0 193.277311,0 C224.553922,0 250,25.4453782 250,56.7226891 C250,88 224.553922,113.445378 193.277311,113.445378" id="Fill-23" fill="#000000"></path>
        <polygon id="Fill-24" fill="#000000" points="192.570028 112.394958 193.970588 112.394958 193.970588 1.05042017 192.570028 1.05042017"></polygon>
        <polygon id="Fill-25" fill="#000000" points="187.002801 112.119048 188.403361 112.119048 188.403361 1.32563025 187.002801 1.32563025"></polygon>
        <polygon id="Fill-26" fill="#000000" points="181.435574 111.280812 182.836134 111.280812 182.836134 2.16456583 181.435574 2.16456583"></polygon>
        <polygon id="Fill-27" fill="#000000" points="175.868347 109.845238 177.268908 109.845238 177.268908 3.59943978 175.868347 3.59943978"></polygon>
        <polygon id="Fill-28" fill="#000000" points="170.30042 107.762605 171.70098 107.762605 171.70098 5.68277311 170.30042 5.68277311"></polygon>
        <polygon id="Fill-29" fill="#000000" points="164.733894 104.946078 166.134454 104.946078 166.134454 8.49859944 164.733894 8.49859944"></polygon>
        <polygon id="Fill-30" fill="#000000" points="159.166667 101.263305 160.567227 101.263305 160.567227 12.1813725 159.166667 12.1813725"></polygon>
        <polygon id="Fill-31" fill="#000000" points="153.59944 96.4796919 155 96.4796919 155 16.964986 153.59944 16.964986"></polygon>
        <polygon id="Fill-32" fill="#000000" points="148.032213 90.1309524 149.432773 90.1309524 149.432773 23.3151261 148.032213 23.3151261"></polygon>
        <polygon id="Fill-33" fill="#000000" points="142.464286 81.0168067 143.864846 81.0168067 143.864846 32.4278711 142.464286 32.4278711"></polygon>
        <polygon id="Fill-34" fill="#000000" points="198.136555 112.119048 199.537115 112.119048 199.537115 1.32563025 198.136555 1.32563025"></polygon>
        <polygon id="Fill-35" fill="#000000" points="203.704482 111.280812 205.105042 111.280812 205.105042 2.16456583 203.704482 2.16456583"></polygon>
        <polygon id="Fill-36" fill="#000000" points="209.271709 109.845238 210.672269 109.845238 210.672269 3.59943978 209.271709 3.59943978"></polygon>
        <polygon id="Fill-37" fill="#000000" points="214.838936 107.762605 216.239496 107.762605 216.239496 5.68277311 214.838936 5.68277311"></polygon>
        <polygon id="Fill-38" fill="#000000" points="220.406162 104.946078 221.806723 104.946078 221.806723 8.49859944 220.406162 8.49859944"></polygon>
        <polygon id="Fill-39" fill="#000000" points="225.972689 101.263305 227.373249 101.263305 227.373249 12.1813725 225.972689 12.1813725"></polygon>
        <polygon id="Fill-40" fill="#000000" points="231.540616 96.4796919 232.941176 96.4796919 232.941176 16.964986 231.540616 16.964986"></polygon>
        <polygon id="Fill-41" fill="#000000" points="237.107843 90.1309524 238.508403 90.1309524 238.508403 23.3151261 237.107843 23.3151261"></polygon>
        <polygon id="Fill-42" fill="#000000" points="242.67507 81.0168067 244.07563 81.0168067 244.07563 32.4278711 242.67507 32.4278711"></polygon>
        <path d="M56.7226891,138.655462 C42.1330532,138.655462 28.4159664,144.336835 18.0994398,154.654062 C7.78221289,164.970588 2.10084034,178.687675 2.10084034,193.277311 C2.10084034,207.866947 7.78221289,221.584034 18.0994398,231.90056 C28.4159664,242.217787 42.1330532,247.89916 56.7226891,247.89916 C71.3123249,247.89916 85.0294118,242.217787 95.3459384,231.90056 C105.663165,221.584034 111.344538,207.866947 111.344538,193.277311 C111.344538,178.687675 105.663165,164.970588 95.3459384,154.654062 C85.0294118,144.336835 71.3123249,138.655462 56.7226891,138.655462 M56.7226891,250 C41.5714286,250 27.3270308,244.09944 16.6141457,233.385854 C5.89985994,222.672969 -1.42108547e-13,208.428571 -1.42108547e-13,193.277311 C-1.42108547e-13,178.12605 5.89985994,163.881653 16.6141457,153.168768 C27.3270308,142.454482 41.5714286,136.554622 56.7226891,136.554622 C71.8739496,136.554622 86.1183473,142.454482 96.8312325,153.168768 C107.545518,163.881653 113.445378,178.12605 113.445378,193.277311 C113.445378,208.428571 107.545518,222.672969 96.8312325,233.385854 L96.0889356,232.643557 L96.8312325,233.385854 C86.1183473,244.09944 71.8739496,250 56.7226891,250" id="Fill-43" fill="#000000"></path>
        <polygon id="Fill-44" fill="#000000" points="95.5885854 233.144048 16.8560924 154.411555 17.8462885 153.421359 96.5787815 232.153852"></polygon>
        <polygon id="Fill-45" fill="#000000" points="91.4573529 236.885504 13.1142157 158.542367 14.105112 157.552171 92.447549 235.895308"></polygon>
        <polygon id="Fill-46" fill="#000000" points="86.9277311 240.228922 9.77086835 163.072059 10.7610644 162.081863 87.9179272 239.238725"></polygon>
        <polygon id="Fill-47" fill="#000000" points="81.9761905 243.15105 6.84943978 168.023599 7.83963585 167.033403 82.9663866 242.160854"></polygon>
        <polygon id="Fill-48" fill="#000000" points="76.5664566 245.614356 4.38578431 173.433683 5.37598039 172.443487 77.5566527 244.62416"></polygon>
        <polygon id="Fill-49" fill="#000000" points="70.6387255 247.559944 2.43984594 179.361765 3.43004202 178.371569 71.6289216 246.569748"></polygon>
        <polygon id="Fill-50" fill="#000000" points="64.0981793 248.892787 1.10728291 185.901891 2.09747899 184.911695 65.0883754 247.902591"></polygon>
        <polygon id="Fill-51" fill="#000000" points="56.7787815 249.446779 0.553291317 193.221289 1.54418768 192.231092 57.7689776 248.456583"></polygon>
        <polygon id="Fill-52" fill="#000000" points="48.352521 248.893487 1.10672269 201.647689 2.09691877 200.657493 49.3427171 247.903291"></polygon>
        <polygon id="Fill-53" fill="#000000" points="37.9713585 246.385784 3.61421569 212.027941 4.60441176 211.037745 38.9615546 245.395588"></polygon>
        <polygon id="Fill-54" fill="#000000" points="99.3303221 229.012115 20.9871849 150.668978 21.9780812 149.678782 100.320518 228.021919"></polygon>
        <polygon id="Fill-55" fill="#000000" points="102.67416 224.482843 25.5172969 147.32598 26.507493 146.335784 103.664356 223.492647"></polygon>
        <polygon id="Fill-56" fill="#000000" points="105.595938 219.530952 30.4691877 144.404202 31.4593838 143.414006 106.586134 218.540756"></polygon>
        <polygon id="Fill-57" fill="#000000" points="108.059594 214.121569 35.8782213 141.940196 36.8684174 140.95 109.04979 213.131373"></polygon>
        <polygon id="Fill-58" fill="#000000" points="110.004832 208.193838 41.8066527 139.994958 42.7968487 139.004762 110.995028 207.203641"></polygon>
        <polygon id="Fill-59" fill="#000000" points="111.337675 201.653291 48.3467787 138.662395 49.3369748 137.672199 112.327871 200.663095"></polygon>
        <polygon id="Fill-60" fill="#000000" points="111.891317 194.333894 55.6658263 138.108403 56.6567227 137.118207 112.881513 193.343697"></polygon>
        <polygon id="Fill-61" fill="#000000" points="111.338375 185.907283 64.092577 138.661485 65.0827731 137.671289 112.328571 184.917087"></polygon>
        <polygon id="Fill-62" fill="#000000" points="108.830672 175.526541 74.4735294 141.169398 75.4637255 140.179202 109.820868 174.536345"></polygon>
        <path d="M193.277311,138.681092 C179.289916,138.681092 165.302521,144.005322 154.654062,154.653782 C144.336835,164.971008 138.655462,178.687395 138.655462,193.277031 C138.655462,207.866667 144.336835,221.583754 154.654062,231.90098 C175.95098,253.197899 210.603641,253.197899 231.90056,231.90098 C242.217787,221.583754 247.89916,207.866667 247.89916,193.277031 C247.89916,178.687395 242.217787,164.971008 231.90056,154.653782 C221.252101,144.005322 207.264706,138.681092 193.277311,138.681092 M193.277311,249.973109 C178.752101,249.973109 164.226891,244.444398 153.168768,233.386275 C142.455182,222.672689 136.554622,208.428291 136.554622,193.277031 C136.554622,178.12577 142.455182,163.882073 153.168768,153.168487 C175.285014,131.052241 211.269608,131.052241 233.385854,153.168487 C244.09944,163.882073 250,178.12577 250,193.277031 C250,208.428291 244.09944,222.672689 233.385854,233.386275 C222.327731,244.444398 207.802521,249.973109 193.277311,249.973109" id="Fill-63" fill="#000000"></path>
        <polygon id="Fill-64" fill="#000000" points="154.411064 233.144048 153.420868 232.153852 232.154062 153.421359 233.144258 154.411555"></polygon>
        <polygon id="Fill-65" fill="#000000" points="158.542997 236.885504 157.552801 235.895308 235.895238 157.552171 236.885434 158.542367"></polygon>
        <polygon id="Fill-66" fill="#000000" points="163.072269 240.228922 162.082073 239.238725 239.238936 162.081863 240.229132 163.072059"></polygon>
        <polygon id="Fill-67" fill="#000000" points="168.02416 243.15105 167.033964 242.160854 242.160714 167.033403 243.15091 168.023599"></polygon>
        <polygon id="Fill-68" fill="#000000" points="173.433543 245.614356 172.443347 244.62416 244.62402 172.443487 245.614216 173.433683"></polygon>
        <polygon id="Fill-69" fill="#000000" points="179.361275 247.559944 178.371078 246.569748 246.569958 178.370868 247.560154 179.361064"></polygon>
        <polygon id="Fill-70" fill="#000000" points="185.901821 248.892787 184.911625 247.902591 247.902521 184.911695 248.892717 185.901891"></polygon>
        <polygon id="Fill-71" fill="#000000" points="193.221218 249.446779 192.231022 248.456583 248.456513 192.231092 249.446709 193.221289"></polygon>
        <polygon id="Fill-72" fill="#000000" points="201.647829 248.893487 200.657633 247.903291 247.903431 200.657493 248.893627 201.647689"></polygon>
        <polygon id="Fill-73" fill="#000000" points="212.028291 246.385784 211.038095 245.395588 245.395238 211.037745 246.386134 212.027941"></polygon>
        <polygon id="Fill-74" fill="#000000" points="150.669608 229.012115 149.679412 228.021919 228.021849 149.679482 229.012045 150.669678"></polygon>
        <polygon id="Fill-75" fill="#000000" points="147.32556 224.482843 146.335364 223.492647 223.492927 146.335784 224.483123 147.32598"></polygon>
        <polygon id="Fill-76" fill="#000000" points="144.404062 219.530952 143.413866 218.540756 218.540616 143.414006 219.530812 144.404202"></polygon>
        <polygon id="Fill-77" fill="#000000" points="141.940756 214.121569 140.95056 213.131373 213.131232 140.95 214.121429 141.940196"></polygon>
        <polygon id="Fill-78" fill="#000000" points="139.995168 208.193838 139.004972 207.203641 207.203852 139.004762 208.194048 139.994958"></polygon>
        <polygon id="Fill-79" fill="#000000" points="138.662325 201.653291 137.672129 200.663095 200.663025 137.672199 201.653221 138.662395"></polygon>
        <polygon id="Fill-80" fill="#000000" points="138.108333 194.333894 137.118137 193.343697 193.343627 137.118207 194.333824 138.108403"></polygon>
        <polygon id="Fill-81" fill="#000000" points="138.661625 185.907283 137.671429 184.917087 184.917227 137.671289 185.907423 138.661485"></polygon>
        <polygon id="Fill-82" fill="#000000" points="141.169328 175.526541 140.179132 174.536345 174.536275 140.179202 175.527171 141.169398"></polygon>
    </g>
</svg>