<?xml version="1.0" encoding="UTF-8"?>
<svg width="250px" height="250px" viewBox="0 0 250 250" version="1.1" xmlns="http://www.w3.org/2000/svg" xmlns:xlink="http://www.w3.org/1999/xlink">
    <title>sehtestzeichen/astigmatismus-sonnenrad</title>
    <g id="sehtestzeichen/astigmatismus-sonnenrad" stroke="none" stroke-width="1" fill="none" fill-rule="evenodd">
        <path d="M125.7069,142.347 L125.7059,250 L124.2939,250 L124.2929,142.347 C124.5279,142.356 124.7629,142.361 124.9999,142.361 C125.2369,142.361 125.4719,142.356 125.7069,142.347 L125.7069,142.347 Z" id="Path" fill="#000000"></path>
        <path d="M128.7089,141.964 L147.4019,247.978 L146.0109,248.224 L127.3179,142.208 C127.7879,142.145 128.2509,142.064 128.7089,141.964 L128.7089,141.964 Z" id="Path" fill="#000000"></path>
        <path d="M121.2909,141.964 C121.7489,142.064 122.2119,142.145 122.6819,142.208 L103.9899,248.224 L102.5979,247.978 L121.2909,141.964 Z" id="Path" fill="#000000"></path>
        <path d="M131.5989,141.063 L168.4159,242.22 L167.0889,242.703 L130.2709,141.547 C130.7219,141.403 131.1649,141.242 131.5989,141.063 L131.5989,141.063 Z" id="Path" fill="#000000"></path>
        <path d="M118.4009,141.063 C118.8349,141.242 119.2779,141.403 119.7289,141.547 L82.9109,242.703 L81.5839,242.22 L118.4009,141.063 Z" id="Path" fill="#000000"></path>
        <path d="M115.7139,139.672 C116.1109,139.923 116.5179,140.159 116.9359,140.379 L63.1119,233.606 L61.8879,232.9 L115.7139,139.672 Z" id="Path" fill="#000000"></path>
        <path d="M134.2859,139.672 L188.1119,232.9 L186.8879,233.606 L133.0639,140.379 C133.4819,140.159 133.8889,139.923 134.2859,139.672 L134.2859,139.672 Z" id="Path" fill="#000000"></path>
        <path d="M113.3089,137.834 C113.6559,138.151 114.0169,138.455 114.3899,138.743 L45.1929,221.21 L44.1109,220.302 L113.3089,137.834 Z" id="Path" fill="#000000"></path>
        <path d="M136.6919,137.834 L205.8889,220.302 L204.8079,221.21 L135.6099,138.743 C135.9829,138.455 136.3439,138.151 136.6919,137.834 L136.6919,137.834 Z" id="Path" fill="#000000"></path>
        <path d="M111.2559,135.609 C111.5449,135.982 111.8479,136.343 112.1659,136.692 L29.6979,205.889 L28.7909,204.807 L111.2559,135.609 Z" id="Path" fill="#000000"></path>
        <path d="M138.7439,135.609 L221.2099,204.807 L220.3019,205.889 L137.8339,136.692 C138.1519,136.343 138.4549,135.982 138.7439,135.609 L138.7439,135.609 Z" id="Path" fill="#000000"></path>
        <path d="M109.6209,133.064 C109.8409,133.481 110.0759,133.889 110.3279,134.285 L17.0999,188.112 L16.3939,186.888 L109.6209,133.064 Z" id="Path" fill="#000000"></path>
        <path d="M140.3789,133.064 L233.6059,186.888 L232.8999,188.112 L139.6719,134.285 C139.9239,133.889 140.1589,133.481 140.3789,133.064 L140.3789,133.064 Z" id="Path" fill="#000000"></path>
        <path d="M108.4529,130.271 C108.5969,130.722 108.7579,131.165 108.9369,131.599 L7.7799,168.416 L7.2969,167.089 L108.4529,130.271 Z" id="Path" fill="#000000"></path>
        <path d="M141.5469,130.271 L242.7029,167.089 L242.2199,168.416 L141.0629,131.599 C141.2419,131.165 141.4029,130.722 141.5469,130.271 L141.5469,130.271 Z" id="Path" fill="#000000"></path>
        <path d="M107.7919,127.318 C107.8549,127.788 107.9359,128.251 108.0359,128.708 L2.0219,147.402 L1.7769,146.011 L107.7919,127.318 Z" id="Path" fill="#000000"></path>
        <path d="M142.2079,127.318 L248.2239,146.01 L247.9779,147.401 L141.9639,128.708 C142.0639,128.251 142.1449,127.788 142.2079,127.318 L142.2079,127.318 Z" id="Path" fill="#000000"></path>
        <path d="M142.3469,124.293 L249.9999,124.294 L249.9999,125.706 L142.3469,125.707 C142.3559,125.472 142.3609,125.237 142.3609,125 C142.3609,124.763 142.3559,124.528 142.3469,124.293 L142.3469,124.293 Z" id="Path" fill="#000000"></path>
        <path d="M107.6529,124.293 C107.6439,124.528 107.6389,124.763 107.6389,125 C107.6389,125.237 107.6439,125.472 107.6529,125.707 L-0.0001,125.706 L-0.0001,124.294 L107.6529,124.293 Z" id="Path" fill="#000000"></path>
        <path d="M2.0219,102.598 L108.0359,121.292 C107.9359,121.749 107.8549,122.212 107.7919,122.682 L1.7769,103.989 L2.0219,102.598 Z" id="Path" fill="#000000"></path>
        <path d="M247.9779,102.598 L248.2239,103.99 L142.2079,122.682 C142.1449,122.212 142.0639,121.749 141.9639,121.292 L247.9779,102.598 Z" id="Path" fill="#000000"></path>
        <path d="M7.7799,81.584 L108.9369,118.401 C108.7579,118.835 108.5969,119.278 108.4529,119.729 L7.2969,82.911 L7.7799,81.584 Z" id="Path" fill="#000000"></path>
        <path d="M242.2199,81.584 L242.7029,82.911 L141.5469,119.729 C141.4029,119.278 141.2419,118.835 141.0629,118.401 L242.2199,81.584 Z" id="Path" fill="#000000"></path>
        <path d="M17.0999,61.888 L110.3279,115.714 C110.0769,116.111 109.8409,116.518 109.6209,116.936 L16.3939,63.112 L17.0999,61.888 Z" id="Path" fill="#000000"></path>
        <path d="M232.8999,61.888 L233.6059,63.112 L140.3789,116.936 C140.1589,116.518 139.9229,116.111 139.6719,115.714 L232.8999,61.888 Z" id="Path" fill="#000000"></path>
        <path d="M220.3019,44.111 L221.2099,45.193 L138.7439,114.391 C138.4549,114.018 138.1519,113.657 137.8339,113.308 L220.3019,44.111 Z" id="Path" fill="#000000"></path>
        <path d="M29.6979,44.111 L112.1659,113.308 C111.8489,113.656 111.5459,114.017 111.2569,114.39 L28.7909,45.193 L29.6979,44.111 Z" id="Path" fill="#000000"></path>
        <path d="M45.1929,28.79 L114.3899,111.257 C114.0169,111.545 113.6559,111.849 113.3089,112.166 L44.1109,29.698 L45.1929,28.79 Z" id="Path" fill="#000000"></path>
        <path d="M204.8079,28.79 L205.8889,29.698 L136.6919,112.166 C136.3429,111.848 135.9819,111.545 135.6089,111.256 L204.8079,28.79 Z" id="Path" fill="#000000"></path>
        <path d="M63.1119,16.394 L116.9359,109.621 C116.5179,109.841 116.1109,110.077 115.7139,110.328 L61.8879,17.1 L63.1119,16.394 Z" id="Path" fill="#000000"></path>
        <path d="M186.8879,16.394 L188.1119,17.1 L134.2849,110.328 C133.8889,110.076 133.4809,109.841 133.0639,109.621 L186.8879,16.394 Z" id="Path" fill="#000000"></path>
        <path d="M82.9109,7.297 L119.7289,108.453 C119.2779,108.597 118.8349,108.758 118.4009,108.937 L81.5839,7.78 L82.9109,7.297 Z" id="Path" fill="#000000"></path>
        <path d="M167.0889,7.297 L168.4159,7.78 L131.5989,108.937 C131.1649,108.758 130.7219,108.597 130.2709,108.453 L167.0889,7.297 Z" id="Path" fill="#000000"></path>
        <path d="M103.9899,1.776 L122.6819,107.792 C122.2119,107.855 121.7489,107.936 121.2909,108.036 L102.5979,2.022 L103.9899,1.776 Z" id="Path" fill="#000000"></path>
        <path d="M146.0109,1.776 L147.4019,2.022 L128.7089,108.036 C128.2509,107.936 127.7879,107.855 127.3179,107.792 L146.0109,1.776 Z" id="Path" fill="#000000"></path>
        <path d="M125.7059,0 L125.7069,107.653 C125.4719,107.644 125.2369,107.639 124.9999,107.639 C124.7629,107.639 124.5279,107.644 124.2929,107.653 L124.2939,0 L125.7059,0 Z" id="Path" fill="#000000"></path>
        <polygon id="Fill-4" fill="#72788A" points="124.294 132.444 125.706 132.444 125.706 118.555 124.294 118.555"></polygon>
        <polygon id="Fill-6" fill="#72788A" points="118.056 125.706 131.945 125.706 131.945 124.294 118.056 124.294"></polygon>
    </g>
</svg>