<?xml version="1.0" encoding="UTF-8"?>
<svg width="250px" height="250px" viewBox="0 0 250 250" version="1.1" xmlns="http://www.w3.org/2000/svg" xmlns:xlink="http://www.w3.org/1999/xlink">
    <title>sehtestzeichen/landoltring-position-5</title>
    <g id="sehtestzeichen/landoltring-position-5" stroke="none" stroke-width="1" fill="none" fill-rule="evenodd">
        <circle id="Oval" fill="#FFFFFF" fill-rule="nonzero" cx="125" cy="125" r="125"></circle>
        <path d="M0,124.954205 C0,55.9444968 55.965,5.68434189e-14 125,5.68434189e-14 C194.035,5.68434189e-14 250,55.9444968 250,124.954205 C250,185.432041 207.055,235.828571 150,247.409326 L150,195.653295 C184.438667,183.481848 205.096802,148.279001 198.919892,112.29052 C192.742982,76.3020386 161.527723,49.9959987 125,49.9959987 C88.4722774,49.9959987 57.2570182,76.3020386 51.080108,112.29052 C44.9031979,148.279001 65.5613329,183.481848 100,195.653295 L100,247.409326 C42.945,235.828571 0,185.432041 0,124.954205 Z" id="Path" fill="#000000" fill-rule="nonzero"></path>
    </g>
</svg>