<?xml version="1.0" encoding="UTF-8"?>
<svg width="250px" height="250px" viewBox="0 0 250 250" version="1.1" xmlns="http://www.w3.org/2000/svg" xmlns:xlink="http://www.w3.org/1999/xlink">
    <title>sehtestzeichen/landoltring-position-7</title>
    <g id="sehtestzeichen/landoltring-position-7" stroke="none" stroke-width="1" fill="none" fill-rule="evenodd">
        <circle id="Oval" fill="#FFFFFF" fill-rule="nonzero" cx="125" cy="125" r="125"></circle>
        <path d="M125.045121,9.9475983e-14 C194.05483,9.9475983e-14 249.999326,55.965 249.999326,125 C249.999326,194.035 194.05483,250 125.045121,250 C64.5922767,250 14.1707557,207.055 2.59,150 L54.3460318,150 C66.5174786,184.438667 101.720325,205.096802 137.708807,198.919892 C173.697288,192.742982 200.003328,161.527723 200.003328,125 C200.003328,88.4722774 173.697288,57.2570182 137.708807,51.080108 C101.720325,44.9031979 66.5174786,65.5613329 54.3460318,100 L2.59,100 C14.1707557,42.945 64.5922767,9.9475983e-14 125.045121,9.9475983e-14 Z" id="Path" fill="#000000" fill-rule="nonzero"></path>
    </g>
</svg>