<?xml version="1.0" encoding="UTF-8"?>
<svg width="24px" height="24px" viewBox="0 0 24 24" version="1.1" xmlns="http://www.w3.org/2000/svg" xmlns:xlink="http://www.w3.org/1999/xlink">
    <title>icons/speaker</title>
    <g id="icons/speaker" stroke="none" stroke-width="1" fill="none" fill-rule="evenodd">
        <g id="Group-265" fill="#000000">
            <path d="M9.99734353,23.8701141 C9.73582438,23.8723448 9.53040129,23.6656095 9.53141448,23.4010395 C9.53236957,23.1491322 9.73989217,22.9448244 9.99419428,22.9455116 C10.2494805,22.9462022 10.4652043,23.161926 10.4648439,23.4161953 C10.4645154,23.6608856 10.2513176,23.8679162 9.99734353,23.8701141" id="Fill-1"></path>
            <path d="M11.5379314,17.8054385 C11.5358975,17.5556307 11.7437482,17.3473535 11.9968693,17.3454837 C12.2491703,17.3436794 12.469618,17.5625524 12.4694541,17.8146894 C12.4692571,18.0706646 12.2528117,18.2845185 11.9969677,18.2815333 C11.7362359,18.2785152 11.5400965,18.075126 11.5379314,17.8054385" id="Fill-3"></path>
            <path d="M8.61594049,18.7089786 C8.61331611,18.9643633 8.41087825,19.1728044 8.16507256,19.1731988 C7.89627076,19.1736573 7.69179901,18.9681358 7.69018412,18.6959224 C7.68874817,18.4476891 7.89705808,18.2422004 8.15054007,18.2417405 C8.4091396,18.2413147 8.61859767,18.4515601 8.61594049,18.7089786" id="Fill-5"></path>
            <path d="M15.851029,12.5048869 C15.588985,12.5044927 15.3859239,12.3003162 15.3848039,12.0360086 C15.3836932,11.7813128 15.5855077,11.5789078 15.8414501,11.5780193 C16.0987702,11.5771363 16.3073754,11.7884643 16.3066882,12.0491961 C16.305932,12.3106496 16.1113344,12.50528 15.851029,12.5048869" id="Fill-7"></path>
            <path d="M10.5403336,15.3872787 C10.5327886,15.6481746 10.3205749,15.8481849 10.0606304,15.8393604 C9.79986574,15.8305359 9.60592429,15.6206514 9.6129117,15.3548348 C9.61960386,15.1011888 9.84329917,14.897242 10.1011114,14.9098062 C10.35046,14.9219439 10.5475835,15.1362571 10.5403336,15.3872787" id="Fill-9"></path>
            <path d="M6.56234598,17.0170352 C6.81317079,17.0175612 7.02902578,17.2378777 7.02564689,17.4899491 C7.02230081,17.7383463 6.81241628,17.9474763 6.5659545,17.9480352 C6.3033856,17.9485917 6.101407,17.7477285 6.10028681,17.4848971 C6.09914348,17.2228531 6.30295914,17.0164787 6.56234598,17.0170352" id="Fill-11"></path>
            <path d="M14.2456486,17.5428434 C14.2391532,17.8035096 14.024348,18.0085718 13.7675855,17.9992553 C13.5098389,17.989906 13.3104847,17.7741166 13.3173737,17.5119413 C13.3239674,17.2594763 13.5333271,17.0617951 13.788843,17.0667158 C14.0514447,17.0717677 14.2521767,17.2809962 14.2456486,17.5428434" id="Fill-13"></path>
            <path d="M14.3869909,15.365703 C14.3914196,15.6236465 14.1985607,15.8315955 13.9471782,15.8399935 C13.6797542,15.8489164 13.466294,15.6465114 13.4589457,15.3771519 C13.4521551,15.127344 13.6533136,14.9180172 13.9073205,14.9105049 C14.1643454,14.9028614 14.3826279,15.1100231 14.3869909,15.365703" id="Fill-15"></path>
            <path d="M10.1286247,21.0109146 C10.3840094,21.015048 10.597732,21.2341179 10.5910727,21.4848771 C10.5843805,21.7366204 10.3778093,21.9390583 10.127739,21.9389271 C9.85857633,21.9387958 9.65866443,21.7325526 9.66099356,21.4573211 C9.66312587,21.2101376 9.87606124,21.0068469 10.1286247,21.0109146" id="Fill-17"></path>
            <path d="M4.58216185,21.3455292 C4.31746065,21.3431673 4.11400584,21.1366945 4.11922178,20.8756674 C4.12433932,20.6188065 4.32789254,20.4183369 4.58121051,20.4206004 C4.83889151,20.4229296 5.05215492,20.6409169 5.04480667,20.8943989 C5.03726159,21.1549339 4.83944919,21.3478256 4.58216185,21.3455292" id="Fill-19"></path>
            <path d="M11.5362083,15.880468 C11.5375935,15.6302009 11.7447225,15.4269429 11.998795,15.4266144 C12.2562463,15.426254 12.469805,15.6385661 12.4693792,15.8944756 C12.4689849,16.1491714 12.2504071,16.3622052 11.9945631,16.3571532 C11.7336017,16.3520357 11.5348051,16.1452676 11.5362083,15.880468" id="Fill-21"></path>
            <path d="M10.2200875,17.9984881 C9.95335241,17.9988157 9.7505537,17.7880127 9.75285003,17.512978 C9.75494953,17.2664506 9.9657854,17.0668339 10.223368,17.067521 C10.4753081,17.0682117 10.6800751,17.2726507 10.681945,17.5253781 C10.6838149,17.7860444 10.4767188,17.9981924 10.2200875,17.9984881" id="Fill-23"></path>
            <path d="M7.69051963,12.0163061 C7.70022982,11.766039 7.9202182,11.5652085 8.17038692,11.5781336 C8.42580439,11.5913539 8.62351837,11.8005495 8.61794157,12.0516368 C8.61223355,12.3102363 8.39339334,12.5165779 8.13577795,12.5062116 C7.87465246,12.4957141 7.68021895,12.2817618 7.69051963,12.0163061" id="Fill-25"></path>
            <path d="M4.76504172,12.0421267 C4.76408693,12.2971177 4.56391259,12.5023768 4.31249729,12.5061493 C4.05074851,12.5100859 3.84575188,12.3068279 3.84398043,12.0416018 C3.84227458,11.7822478 4.05386496,11.5737739 4.31426875,11.5782025 C4.5702439,11.5825983 4.7659896,11.784052 4.76504172,12.0421267" id="Fill-27"></path>
            <path d="M6.05227211,13.8042907 C6.06096536,13.5477907 6.26658528,13.3567033 6.52620175,13.3639203 C6.78329226,13.3710389 6.98146551,13.577643 6.97487176,13.8316499 C6.96801558,14.0942844 6.75658922,14.2983296 6.49785848,14.2919327 C6.2374875,14.285503 6.0431852,14.0728301 6.05227211,13.8042907" id="Fill-29"></path>
            <path d="M6.86995574,15.4163994 C6.87372828,15.1672149 7.0842033,14.9669421 7.3377837,14.9712067 C7.60064784,14.9756354 7.7988539,15.1814849 7.79409722,15.4451692 C7.78940614,15.7036047 7.57781577,15.9054521 7.31708393,15.9002033 C7.06058391,15.8950202 6.86588796,15.6843483 6.86995574,15.4163994" id="Fill-31"></path>
            <path d="M4.46695173,17.3817657 C4.46829014,17.6329185 4.26332631,17.8467068 4.01591319,17.8522836 C3.75505014,17.8581229 3.54467354,17.6536183 3.5415899,17.3911806 C3.53844064,17.1267747 3.74392935,16.9186288 4.00561251,16.9211548 C4.25469867,16.9235823 4.46560015,17.1341557 4.46695173,17.3817657" id="Fill-33"></path>
            <path d="M13.9881775,19.0093752 C14.2463834,19.0084922 14.4593844,19.2202466 14.4568912,19.4753032 C14.4543653,19.7346244 14.2438902,19.9418846 13.9854875,19.9395227 C13.724362,19.9370951 13.525139,19.7316392 13.5263473,19.4659867 C13.5274682,19.2183767 13.737976,19.0102308 13.9881775,19.0093752" id="Fill-35"></path>
            <path d="M15.8394326,19.1740116 C15.5804394,19.1688285 15.375738,18.9524486 15.3834471,18.692012 C15.3908938,18.4388581 15.6004175,18.237634 15.8527841,18.2413081 C16.1065285,18.2450151 16.3096881,18.4516847 16.3076542,18.7040514 C16.3055547,18.9655705 16.0928162,19.1790964 15.8394326,19.1740116" id="Fill-37"></path>
            <path d="M2.46629088,17.8110776 C2.46832477,18.0623617 2.26336094,18.2755595 2.01601343,18.2793977 C1.7532149,18.2835311 1.5386721,18.0665607 1.5414605,17.7994976 C1.54392086,17.5609745 1.75006565,17.3545673 1.99265648,17.3477111 C2.24446543,17.3405597 2.46422418,17.5555618 2.46629088,17.8110776" id="Fill-39"></path>
            <path d="M11.5395323,12.0465947 C11.5375968,11.7864862 11.7303245,11.5859182 11.9883663,11.5794884 C12.241225,11.5732227 12.4653796,11.7885528 12.4686273,12.0409195 C12.471875,12.293647 12.2516569,12.5112078 11.9959442,12.5078945 C11.7388537,12.5045484 11.5414678,12.3050302 11.5395323,12.0465947" id="Fill-41"></path>
            <path d="M6.23551594,22.4983082 C5.96605805,22.4976175 5.76919699,22.3017406 5.76850665,22.0337261 C5.7678848,21.7776526 5.97015864,21.5735088 6.22393587,21.5740327 C6.48122321,21.5745914 6.6956676,21.7882157 6.69465425,22.0428458 C6.6936009,22.2972135 6.4901789,22.4989953 6.23551594,22.4983082" id="Fill-43"></path>
            <path d="M10.8000208,12.9944737 C10.8011967,13.2554351 10.5946582,13.4699123 10.3416355,13.4705702 C10.0783121,13.4712573 9.87429962,13.2707549 9.87108476,13.0081532 C9.86790271,12.7477494 10.0727353,12.5421295 10.3355338,12.5418997 C10.5852433,12.5417031 10.7989332,12.7498817 10.8000208,12.9944737" id="Fill-45"></path>
            <path d="M10.4733464,19.4697986 C10.4750195,19.7335484 10.2744843,19.9364784 10.0107672,19.9379294 C9.74895283,19.9393652 9.54543241,19.7354183 9.54543241,19.4716028 C9.54543241,19.217596 9.74918246,19.010303 9.99912154,19.0100732 C10.2637243,19.0098437 10.4717062,19.2114615 10.4733464,19.4697986" id="Fill-47"></path>
            <path d="M11.9946976,21.1989303 C12.2528707,21.1983411 12.4693818,21.4084552 12.4695788,21.6597065 C12.4698083,21.9115483 12.2517882,22.1258614 11.9966659,22.1246528 C11.7372463,22.1234339 11.5380233,21.919159 11.5361534,21.6525551 C11.5344476,21.401435 11.7385585,21.1994892 11.9946976,21.1989303" id="Fill-49"></path>
            <path d="M11.9983652,13.5031036 C12.25457,13.5027105 12.4707858,13.7173189 12.4691128,13.9702104 C12.4674069,14.2220193 12.2637881,14.4261958 12.0113559,14.4292139 C11.7463922,14.4323959 11.5409691,14.2343539 11.5374262,13.9722771 C11.5338505,13.7076087 11.7343529,13.5034978 11.9983652,13.5031036" id="Fill-51"></path>
            <path d="M10.3420653,10.6158895 C10.5883302,10.6181202 10.7994285,10.8327286 10.7996912,11.0810602 C10.7999534,11.3402502 10.5880022,11.5469199 10.3265486,11.5423929 C10.063258,11.537833 9.86547844,11.3302448 9.87072719,11.0640674 C9.87571351,10.8140627 10.0865494,10.6135603 10.3420653,10.6158895" id="Fill-53"></path>
            <path d="M15.682649,21.3923973 C15.4243447,21.3967932 15.2165925,21.1886145 15.2159353,20.9248318 C15.2153787,20.678042 15.4254929,20.467731 15.6758585,20.4645161 C15.9307511,20.4612356 16.1357477,20.6591465 16.1416853,20.9143343 C16.1477214,21.1711624 15.9394115,21.3880671 15.682649,21.3923973" id="Fill-55"></path>
            <path d="M6.65742715,20.5012574 C6.39013437,20.4981737 6.19481513,20.2993444 6.19425648,20.0296897 C6.19373258,19.7816205 6.40689758,19.5719328 6.65811605,19.5734337 C6.90946573,19.574918 7.12896204,19.7997287 7.12345085,20.0500286 C7.11784125,20.3038386 6.91097475,20.504177 6.65742715,20.5012574" id="Fill-57"></path>
            <path d="M14.3412483,21.4665294 C14.3422289,21.7261787 14.1345751,21.935604 13.8739417,21.9378347 C13.6143252,21.9400654 13.4083772,21.7300168 13.4116905,21.4664638 C13.4148726,21.2153437 13.6219031,21.0129387 13.8769925,21.0116203 C14.1286703,21.0103143 14.3403262,21.2177385 14.3412483,21.4665294" id="Fill-59"></path>
            <path d="M15.8526627,16.7023014 C15.8564681,16.9642798 15.6536365,17.1768872 15.3974974,17.1793475 C15.1404725,17.1817751 14.932425,16.975499 14.9279964,16.7138159 C14.923699,16.4616461 15.1240373,16.2530409 15.3761087,16.2473001 C15.637267,16.2413624 15.8488902,16.4434067 15.8526627,16.7023014" id="Fill-61"></path>
            <path d="M11.9949863,20.1999264 C11.7250364,20.1962195 11.5306029,19.9877128 11.5381807,19.7101521 C11.5450041,19.4597866 11.7546262,19.267387 12.0146363,19.2728653 C12.2608357,19.2780157 12.4721636,19.4944612 12.4696049,19.7388234 C12.4669477,19.9960124 12.2533562,20.2035022 11.9949863,20.1999264" id="Fill-63"></path>
            <path d="M14.3867023,8.72172255 C14.383717,8.97264578 14.1765881,9.17518205 13.9238606,9.17426663 C13.6678855,9.1733778 13.4580337,8.95893341 13.4615438,8.70181009 C13.4649555,8.4482953 13.6675902,8.25008924 13.9232373,8.25012205 C14.1783267,8.25018766 14.3897531,8.46532094 14.3867023,8.72172255" id="Fill-65"></path>
            <path d="M13.2025932,12.9882244 C13.2024293,12.7454367 13.4192684,12.5383078 13.6704869,12.5413258 C13.9259371,12.5444094 14.1356577,12.7605925 14.131065,13.0161084 C14.1264723,13.2691639 13.9234768,13.4691086 13.6698308,13.4703279 C13.4062121,13.471569 13.2027573,13.2616516 13.2025932,12.9882244" id="Fill-67"></path>
            <path d="M6.22989321,11.5773199 C6.47855291,11.5775169 6.69280047,11.7883199 6.69480155,12.0347489 C6.69690105,12.2908225 6.48491702,12.5052013 6.22799053,12.5068087 C5.96755394,12.5084489 5.76770765,12.3020417 5.76898093,12.0327478 C5.77016801,11.7765758 5.97204819,11.5771232 6.22989321,11.5773199" id="Fill-69"></path>
            <path d="M15.3342269,9.65760155 C15.5962381,9.66088202 15.7932304,9.86591146 15.791295,10.1333355 C15.7893923,10.3888185 15.5862327,10.5861389 15.3289454,10.5823991 C15.0702474,10.5786266 14.8684329,10.3693325 14.8696737,10.1061732 C14.8708276,9.85541395 15.0790063,9.6544195 15.3342269,9.65760155" id="Fill-71"></path>
            <path d="M8.04944908,23.3475134 C7.78625689,23.3469216 7.58867412,23.1435652 7.58997981,22.8745338 C7.59123289,22.6237746 7.80108462,22.4205494 8.05610843,22.4231082 C8.30145486,22.4255685 8.51947496,22.6429653 8.51957339,22.8852281 C8.51963898,23.1494701 8.31766038,23.3481026 8.04944908,23.3475134" id="Fill-73"></path>
            <path d="M13.2059558,11.0804435 C13.2035938,10.8253541 13.4060317,10.6173394 13.6574798,10.6165497 C13.9138486,10.615732 14.1294412,10.8275848 14.132328,11.0831335 C14.135182,11.3336959 13.9278562,11.5418089 13.6750303,11.5421374 C13.4059989,11.542465 13.2084161,11.3480315 13.2059558,11.0804435" id="Fill-75"></path>
            <path d="M8.61134455,17.1798757 C8.35809219,17.1826641 8.14745315,16.9700567 8.14548486,16.7096858 C8.14358219,16.4574175 8.34346129,16.2528474 8.59832108,16.2462208 C8.85728145,16.2394631 9.06870781,16.4446893 9.07129938,16.7053227 C9.07392376,16.9644799 8.86784457,17.1770545 8.61134455,17.1798757" id="Fill-77"></path>
            <path d="M4.87673174,15.8848277 C4.87673174,15.6289838 5.08097386,15.4242168 5.33350452,15.4268412 C5.59873059,15.429564 5.8000531,15.6324283 5.79920287,15.8959485 C5.79838006,16.1447395 5.5883315,16.3561658 5.34006546,16.3581341 C5.08546811,16.3601352 4.87673174,16.1468718 4.87673174,15.8848277" id="Fill-79"></path>
            <path d="M4.57053258,3.65914557 C4.30635625,3.65573388 4.11316932,3.44893299 4.12104245,3.1779989 C4.12819387,2.93209479 4.3331905,2.73523373 4.57942265,2.73789091 C4.8388751,2.74067931 5.05246657,2.95843697 5.04410137,3.2114925 C5.03583458,3.46051306 4.82224312,3.66242604 4.57053258,3.65914557" id="Fill-81"></path>
            <path d="M5.02765309,14.03519 C5.025652,14.300088 4.82360779,14.4987533 4.55788964,14.4970475 C4.2998478,14.4954072 4.10082162,14.2830295 4.10685769,14.0157696 C4.11256571,13.7641574 4.32182695,13.5657218 4.5778021,13.5691662 C4.83043117,13.5725779 5.02958856,13.7789196 5.02765309,14.03519" id="Fill-83"></path>
            <path d="M1.09049416,14.0605447 C1.08432687,14.3139611 0.878903782,14.5147587 0.627357268,14.513323 C0.375482707,14.5118719 0.162284899,14.2877501 0.170682904,14.033284 C0.17908091,13.7793099 0.388834224,13.5771673 0.637920384,13.5830394 C0.902687196,13.5892723 1.09698949,13.7943017 1.09049416,14.0605447" id="Fill-85"></path>
            <path d="M14.8697713,13.9415817 C14.8833852,13.6827854 15.0916295,13.4907138 15.3466534,13.5016706 C15.6054169,13.5127914 15.8053616,13.7334358 15.7920101,13.9931835 C15.7782321,14.2614276 15.5694957,14.4454621 15.2991849,14.4277147 C15.0446204,14.4110171 14.8562886,14.1978193 14.8697713,13.9415817" id="Fill-87"></path>
            <path d="M7.3240943,9.11190505 C7.06424819,9.10764044 6.86827286,8.9081878 6.87138931,8.6511301 C6.87453856,8.38688816 7.06933292,8.18569688 7.32068261,8.18706764 C7.58653198,8.18855089 7.7949731,8.39128399 7.79490751,8.64824328 C7.79480908,8.90759732 7.58305468,9.11616966 7.3240943,9.11190505" id="Fill-89"></path>
            <path d="M3.02650019,13.9245069 C3.02348215,14.1825487 2.80916898,14.3907274 2.55207847,14.385413 C2.30660083,14.3803283 2.09786446,14.160668 2.1036709,13.9135501 C2.10987099,13.6494722 2.31886979,13.4487402 2.5800937,13.45599 C2.83452702,13.4630758 3.02951822,13.6677116 3.02650019,13.9245069" id="Fill-91"></path>
            <path d="M16.982247,17.4784674 C16.9797866,17.2265929 17.1851113,17.0173972 17.4359689,17.0161451 C17.6844974,17.0149041 17.8966454,17.2228531 17.9005164,17.4714472 C17.904617,17.734541 17.6998172,17.947706 17.4429235,17.947706 C17.1781567,17.9476732 16.9849042,17.7508449 16.982247,17.4784674" id="Fill-93"></path>
            <path d="M5.02784335,10.0423516 C5.02971322,10.3038051 4.821961,10.5164453 4.56628109,10.5147722 C4.30082538,10.5130664 4.10599821,10.3125968 4.10697864,10.0421548 C4.10790088,9.78670449 4.30692705,9.59131964 4.5677245,9.58993502 C4.8247822,9.58859685 5.02600629,9.78644205 5.02784335,10.0423516" id="Fill-95"></path>
            <path d="M5.19971707,5.70034619 C4.94200327,5.70122891 4.7416321,5.50617211 4.73769554,5.2504922 C4.73372617,4.99546838 4.93422855,4.78030229 5.17882047,4.77705463 C5.44086449,4.77357733 5.65960629,4.97857396 5.66076014,5.22874268 C5.66200104,5.49068828 5.45789013,5.69945745 5.19971707,5.70034619" id="Fill-97"></path>
            <path d="M5.66020006,18.8401975 C5.66016725,19.0993875 5.46278132,19.3059259 5.21198931,19.3092392 C4.9465336,19.3127493 4.72877594,19.0956149 4.73254848,18.8311762 C4.73605858,18.583599 4.9513887,18.3764373 5.20263997,18.3789633 C5.45533465,18.381522 5.66023286,18.5880605 5.66020006,18.8401975" id="Fill-99"></path>
            <path d="M3.02605408,10.1605666 C3.02595563,10.424907 2.82341935,10.626984 2.56088326,10.6246877 C2.29595242,10.6223585 2.10204378,10.4205768 2.10620998,10.1515453 C2.11014655,9.8976369 2.31488074,9.69900438 2.57013419,9.70146473 C2.82204155,9.70389228 3.02615246,9.90944659 3.02605408,10.1605666" id="Fill-101"></path>
            <path d="M0.449329389,11.57888 C0.709339518,11.5773791 0.921093919,11.7861155 0.919755298,12.0426483 C0.918403933,12.2983282 0.702581748,12.5111323 0.448148419,12.5076879 C0.195814593,12.504309 0.00279168079,12.3035441 3.60851806e-05,12.041697 C-0.00268670572,11.7861155 0.197061172,11.5803643 0.449329389,11.57888" id="Fill-103"></path>
            <path d="M10.1212568,3.06802765 C9.87299072,3.06670892 9.66520569,2.86663299 9.66310618,2.62683057 C9.66074425,2.3554044 9.85471849,2.15014533 10.1154503,2.14814424 C10.3674561,2.14624157 10.5912826,2.36741092 10.5883302,2.61541453 C10.5853778,2.86325411 10.3727049,3.0693661 10.1212568,3.06802765" id="Fill-105"></path>
            <path d="M8.33263245,21.3927811 C8.068981,21.397341 7.86444364,21.1993646 7.85571758,20.9311861 C7.84761482,20.681411 8.05582631,20.4660153 8.30681515,20.4645309 C8.56708771,20.4630301 8.78438611,20.6718648 8.78661683,20.9257077 C8.78881474,21.177615 8.58391653,21.3884837 8.33263245,21.3927811" id="Fill-107"></path>
            <path d="M2.6978298,4.61126619 C2.69973247,4.36559172 2.90394179,4.15974216 3.14577811,4.15977497 C3.41093858,4.15977497 3.62154481,4.36628061 3.61806752,4.62281344 C3.61462302,4.87770604 3.41149626,5.08007829 3.15778463,5.08146417 C2.89229612,5.0829323 2.6957303,4.88197065 2.6978298,4.61126619" id="Fill-109"></path>
            <path d="M3.15554079,18.9994782 C3.4147308,18.9986278 3.6222534,19.2089716 3.61907134,19.4693098 C3.61595489,19.724596 3.41076143,19.9298223 3.16105198,19.9273948 C2.90051698,19.9248688 2.69811192,19.7195441 2.69581559,19.4554662 C2.69361767,19.2036901 2.89864711,19.0003337 3.15554079,18.9994782" id="Fill-111"></path>
            <path d="M1.54618766,6.25900083 C1.55127239,5.99449645 1.75827011,5.79776661 2.02172473,5.80701754 C2.27146699,5.81577639 2.47301912,6.02999115 2.4658677,6.2790445 C2.45865066,6.5297381 2.25034075,6.73129023 1.99948314,6.73034225 C1.73356816,6.72928914 1.54097171,6.5290492 1.54618766,6.25900083" id="Fill-113"></path>
            <path d="M14.244114,6.58150393 C14.2432243,6.81927246 14.0341271,7.0145917 13.7822197,7.01295147 C13.5208318,7.01127843 13.3144246,6.80182036 13.319214,6.54315522 C13.3238723,6.28904994 13.5274583,6.0895317 13.7819245,6.08972838 C14.0393102,6.08989255 14.2451598,6.30892959 14.244114,6.58150393" id="Fill-115"></path>
            <path d="M9.13045283,10.1184716 C9.12690992,10.3794003 8.91407297,10.5893504 8.6600333,10.5826255 C8.39513527,10.5756053 8.1996192,10.3687388 8.20667221,10.1030206 C8.21346278,9.84809522 8.41800015,9.65382573 8.67620602,9.65704059 C8.92949118,9.66018985 9.13386452,9.86781085 9.13045283,10.1184716" id="Fill-117"></path>
            <path d="M16.665091,14.970714 C16.9244779,14.9702882 17.1295401,15.1798775 17.1270798,15.4429385 C17.1246194,15.7019316 16.9242482,15.9027621 16.6707991,15.9002689 C16.4106905,15.897743 16.2095976,15.6938617 16.2050706,15.4281435 C16.2008716,15.1812553 16.4121667,14.9711411 16.665091,14.970714" id="Fill-119"></path>
            <path d="M5.33796924,7.72989184 C5.58856441,7.73195853 5.79946589,7.94115417 5.79969572,8.18784559 C5.79992516,8.45021765 5.59427243,8.6560016 5.33321255,8.65463068 C5.06979074,8.6532132 4.87899854,8.46199454 4.87975082,8.20008174 C4.88057317,7.93013179 5.07779508,7.72772673 5.33796924,7.72989184" id="Fill-121"></path>
            <path d="M12.0030596,8.6536471 C11.7368493,8.65315415 11.5379216,8.45330786 11.5399555,8.18840983 C11.541891,7.93246748 11.7412124,7.73265399 11.9968267,7.73032486 C12.2438461,7.72802853 12.4697722,7.95438103 12.4675414,8.20189256 C12.4652451,8.44937129 12.2547701,8.65413829 12.0030596,8.6536471" id="Fill-123"></path>
            <path d="M18.2039665,8.17394295 C18.206919,7.9290886 18.410341,7.73078413 18.6585414,7.73084972 C18.9129419,7.73091535 19.122564,7.94696716 19.1210631,8.20753497 C19.1195132,8.46774193 18.9199621,8.66053521 18.6578525,8.65508963 C18.3966286,8.64967685 18.2007517,8.44202304 18.2039665,8.17394295" id="Fill-125"></path>
            <path d="M9.13107612,13.9711486 C9.12782846,14.2336847 8.92516096,14.430677 8.65983647,14.4291441 C8.40389412,14.4276917 8.19889749,14.2142971 8.20362137,13.9542542 C8.20814842,13.703823 8.41740966,13.4997449 8.66790643,13.501582 C8.92712924,13.503419 9.13425818,13.713402 9.13107612,13.9711486" id="Fill-127"></path>
            <path d="M16.6767859,9.11190539 C16.4125768,9.111577 16.2089251,8.9102873 16.2082014,8.64873535 C16.2074489,8.38734743 16.4148403,8.18198994 16.6758018,8.18559846 C16.9256424,8.18907576 17.1287364,8.4073583 17.1268993,8.67041927 C17.1251279,8.91796361 16.9270859,9.11220029 16.6767859,9.11190539" id="Fill-129"></path>
            <path d="M0.618477033,10.4974054 C0.358696537,10.4928127 0.170200675,10.2895876 0.171506055,10.0154058 C0.172595419,9.77498009 0.397209266,9.56532519 0.644523972,9.57382161 C0.900499122,9.58264607 1.09489983,9.7855104 1.09211143,10.0409279 C1.08925742,10.3013645 0.881013125,10.5020637 0.618477033,10.4974054" id="Fill-131"></path>
            <path d="M10.5394621,8.70697027 C10.5408979,8.95749984 10.3374431,9.16748279 10.0877008,9.17325642 C9.82647692,9.17929248 9.61429606,8.97426305 9.61291147,8.71448255 C9.61157327,8.45893386 9.81036981,8.25246102 10.0625724,8.2474419 C10.3195645,8.24235717 10.5380111,8.45283219 10.5394621,8.70697027" id="Fill-133"></path>
            <path d="M17.9449537,13.8330276 C17.943379,14.0921849 17.7433031,14.2945571 17.4908709,14.2922936 C17.2300078,14.2899973 17.0274387,14.0845414 17.0256345,13.8203978 C17.0238958,13.5677688 17.2294173,13.3613615 17.4825385,13.361591 C17.7428767,13.3618536 17.9465611,13.5694746 17.9449537,13.8330276" id="Fill-135"></path>
            <path d="M6.972933,10.2643443 C6.97106314,10.5154644 6.76557443,10.7192473 6.51268293,10.720732 C6.24699758,10.7222325 6.05108786,10.5243873 6.0496712,10.2530595 C6.04836507,10.0049903 6.26041471,9.79362956 6.50923843,9.79490317 C6.77102002,9.79625394 6.97486848,10.0026284 6.972933,10.2643443" id="Fill-137"></path>
            <path d="M2.84436554,12.0368255 C2.84537882,12.2940144 2.63428052,12.5071466 2.37794451,12.5078041 C2.13174517,12.508426 1.92307441,12.2986726 1.91959711,12.0470933 C1.91595579,11.78728 2.12547947,11.5762473 2.38398058,11.5793638 C2.63861074,11.5824146 2.84337774,11.7859022 2.84436554,12.0368255" id="Fill-139"></path>
            <path d="M13.5330417,4.59843626 C13.5385201,4.3375076 13.7357092,4.14674822 13.9969003,4.14963503 C14.2513336,4.15245624 14.460398,4.37277267 14.4533778,4.63065049 C14.4467513,4.87429107 14.2390319,5.07351407 13.9942759,5.07108652 C13.7315758,5.06842934 13.5275633,4.85939773 13.5330417,4.59843626" id="Fill-141"></path>
            <path d="M18.7971413,19.3097149 C18.5395259,19.3078122 18.336924,19.0978293 18.3388267,18.8347683 C18.340631,18.5847308 18.5490721,18.3789469 18.7995032,18.3799275 C19.0557736,18.3809479 19.2553903,18.5801381 19.2553903,18.8348667 C19.2554231,19.0984197 19.0496719,19.3115847 18.7971413,19.3097149" id="Fill-143"></path>
            <path d="M17.9450521,10.2728342 C17.9419684,10.533402 17.7427454,10.7276387 17.4858189,10.7205857 C17.2221019,10.7133686 17.0200577,10.5052228 17.0263562,10.2472793 C17.0325563,9.99323966 17.2368312,9.79286849 17.4886073,9.79391414 C17.7392681,9.7950008 17.9481029,10.0141363 17.9450521,10.2728342" id="Fill-145"></path>
            <path d="M8.14627874,5.83601362 C7.88088864,5.83233949 7.68570061,5.62986882 7.69068693,5.36339617 C7.69541081,5.11132478 7.90578741,4.9080996 8.15602174,4.91390604 C8.40481265,4.91967966 8.61614059,5.13186053 8.61561669,5.37536989 C8.61502523,5.63747952 8.40904446,5.83965494 8.14627874,5.83601362" id="Fill-147"></path>
            <path d="M14.4696752,23.4099526 C14.4618677,23.6724559 14.2366306,23.8818155 13.9740945,23.8705963 C13.7244834,23.8599348 13.5322806,23.6452608 13.5422533,23.3883015 C13.5519963,23.1358364 13.7627665,22.9395658 14.0165109,22.9466845 C14.2717644,22.9538031 14.4770235,23.1635892 14.4696752,23.4099526" id="Fill-149"></path>
            <path d="M11.5412739,6.28143925 C11.5402934,6.01480257 11.7421079,5.80419633 11.9970333,5.80576219 C12.2457258,5.80731278 12.4680434,6.03045041 12.468109,6.27858524 C12.4682074,6.52366922 12.2555345,6.73050292 12.0031022,6.73089726 C11.7458477,6.73132304 11.542196,6.53311698 11.5412739,6.28143925" id="Fill-151"></path>
            <path d="M10.6825093,6.54748216 C10.6868067,6.79525614 10.480301,7.0088476 10.231871,7.01360428 C9.97130315,7.01855779 9.7626652,6.82743756 9.75557938,6.57726884 C9.7480343,6.31017289 9.9437472,6.09576131 10.2007393,6.08962683 C10.4530403,6.08362357 10.678179,6.29754308 10.6825093,6.54748216" id="Fill-153"></path>
            <path d="M2.65629576,15.7206434 C2.65426186,15.4617815 2.84994196,15.2630177 3.10827905,15.2615007 C3.36694418,15.2599997 3.57863297,15.4702779 3.57729435,15.7274012 C3.57597579,15.9761921 3.36720662,16.1873561 3.11946545,16.1904069 C2.86234214,16.1935889 2.65839526,15.9867224 2.65629576,15.7206434" id="Fill-155"></path>
            <path d="M4.4660955,6.68746314 C4.47019609,6.94156842 4.25722792,7.15834194 4.00240093,7.1594293 C3.74452311,7.16053986 3.54831814,6.96735292 3.54287256,6.70698194 C3.53749259,6.45058033 3.73336951,6.24122067 3.98376786,6.23570948 C4.24472932,6.22996866 4.46202772,6.43348908 4.4660955,6.68746314" id="Fill-157"></path>
            <path d="M9.07326837,7.37054577 C9.0728084,7.62858761 8.86131643,7.83663508 8.60192959,7.83417473 C8.34382214,7.83171438 8.14732193,7.63416441 8.14613581,7.37599135 C8.14495999,7.12126278 8.34729944,6.91150947 8.59576231,6.90983643 C8.85173746,6.90813058 9.07372693,7.12231253 9.07326837,7.37054577" id="Fill-159"></path>
            <path d="M20.1455625,12.0585455 C20.1432333,12.3130116 19.9498496,12.5077403 19.7007962,12.5064347 C19.4331098,12.5050175 19.2322138,12.2940505 19.2365768,12.0188846 C19.2404805,11.772554 19.4411141,11.5790718 19.6930543,11.5786775 C19.9512602,11.5782517 20.1480228,11.7869553 20.1455625,12.0585455" id="Fill-161"></path>
            <path d="M1.61402657,15.9834977 C1.61477903,16.2456402 1.40666595,16.4592973 1.15298713,16.4567713 C0.89602784,16.4542125 0.690801576,16.2412115 0.693786805,15.9801189 C0.696739229,15.7238813 0.897438443,15.5266594 1.15472578,15.5272485 C1.40745326,15.5278075 1.61327001,15.7322793 1.61402657,15.9834977" id="Fill-163"></path>
            <path d="M17.3514574,19.5730186 C17.600478,19.5776769 17.8082958,19.791498 17.8041296,20.0387471 C17.7997994,20.2975762 17.5845349,20.5088714 17.3314465,20.5028025 C17.066975,20.4964056 16.8779542,20.2939021 16.8829406,20.0223119 C16.8874348,19.775194 17.1031586,19.5683275 17.3514574,19.5730186" id="Fill-165"></path>
            <path d="M22.0693159,12.0472836 C22.0714483,12.3013233 21.8812794,12.5013992 21.6340303,12.5051717 C21.3732984,12.5092067 21.1653494,12.3082123 21.1588868,12.0459714 C21.1526211,11.7920958 21.3530251,11.5819816 21.6050309,11.5783403 C21.8625807,11.5745677 22.0670852,11.781139 22.0693159,12.0472836" id="Fill-167"></path>
            <path d="M17.7647869,11.5778777 C18.0162022,11.5752205 18.2296297,11.7916988 18.2296625,12.0494126 C18.2297281,12.3051581 18.0280775,12.5082849 17.775022,12.5074673 C17.5142902,12.5066447 17.3157561,12.3049941 17.3120491,12.0373077 C17.3085718,11.7832024 17.5082213,11.5806005 17.7647869,11.5778777" id="Fill-169"></path>
            <path d="M11.5405722,10.1100933 C11.5430654,9.85110013 11.7410746,9.65561687 11.9999366,9.65659731 C12.253517,9.65758515 12.4704873,9.87675342 12.468355,10.1298746 C12.4663211,10.3757131 12.2517127,10.5828748 11.9996085,10.5824163 C11.7418947,10.5819563 11.5380462,10.3722029 11.5405722,10.1100933" id="Fill-171"></path>
            <path d="M8.51478716,1.19736862 C8.51045694,1.45675546 8.29614377,1.66175209 8.03678974,1.65466628 C7.78288129,1.64771168 7.58693875,1.44074676 7.59162983,1.18447637 C7.5963209,0.92709062 7.80128473,0.729114197 8.05634135,0.735609529 C8.30949529,0.742072057 8.51885495,0.952940731 8.51478716,1.19736862" id="Fill-173"></path>
            <path d="M19.1199659,15.8867337 C19.1178664,16.1447427 18.9180201,16.3563987 18.6747732,16.358203 C18.4111217,16.3601713 18.198908,16.1441194 18.202779,15.877614 C18.2064859,15.6217701 18.4083005,15.4260243 18.6660471,15.4281895 C18.9193323,15.4303218 19.1219998,15.6350888 19.1199659,15.8867337" id="Fill-175"></path>
            <path d="M9.53931105,0.671660028 C9.5472826,0.404170426 9.74076477,0.208359114 9.99211446,0.213411039 C10.2469742,0.218561378 10.4656832,0.438713785 10.4616155,0.686028491 C10.4575805,0.931112477 10.2371,1.13988165 9.98919484,1.13341912 C9.72888947,1.12666135 9.53179877,0.924354707 9.53931105,0.671660028" id="Fill-177"></path>
            <path d="M16.4064357,22.8944298 C16.3966599,23.1555553 16.1848399,23.3562546 15.9266013,23.3489719 C15.6744971,23.3419189 15.4770127,23.1319359 15.4839017,22.8783227 C15.4908563,22.62261 15.7136987,22.411971 15.9642611,22.4242399 C16.2223357,22.4369026 16.4158179,22.6426537 16.4064357,22.8944298" id="Fill-179"></path>
            <path d="M6.55462375,6.14150748 C6.80311942,6.13970322 7.0223533,6.34804593 7.0258634,6.58929177 C7.02953753,6.84175681 6.81460107,7.06095788 6.56095506,7.06348384 C6.30333967,7.06600981 6.10411667,6.87128105 6.09916316,6.61202543 C6.09398002,6.34197706 6.28615,6.14344296 6.55462375,6.14150748" id="Fill-181"></path>
            <path d="M13.4151186,2.59609911 C13.4235822,2.33418631 13.6242158,2.1418851 13.8805518,2.15011909 C14.1468277,2.15864831 14.3479533,2.37673402 14.3383416,2.64648715 C14.3300092,2.8801879 14.1050673,3.07878761 13.8611971,3.06779803 C13.6063701,3.05628358 13.4070815,2.84557893 13.4151186,2.59609911" id="Fill-183"></path>
            <path d="M17.7652035,21.5742962 C18.0197681,21.5702612 18.2291934,21.7732895 18.2311616,22.0259842 C18.2331627,22.2747095 18.0265259,22.491319 17.7801953,22.4988313 C17.513329,22.5069341 17.3134171,22.311582 17.3099398,22.0393685 C17.3067577,21.7899543 17.5140179,21.5782327 17.7652035,21.5742962" id="Fill-185"></path>
            <path d="M11.5410052,2.42866388 C11.5433672,2.16002611 11.7461003,1.95361888 12.0036172,1.95775227 C12.240336,1.96152481 12.4646218,2.18882864 12.4658414,2.42617072 C12.467115,2.67309177 12.2549997,2.8809096 12.0023051,2.88028771 C11.7425246,2.87963022 11.5388073,2.68017759 11.5410052,2.42866388" id="Fill-187"></path>
            <path d="M6.19762405,4.04588358 C6.19920768,3.78351151 6.39482217,3.58018792 6.64403955,3.58186096 C6.90388565,3.58363241 7.12331635,3.79397621 7.12285781,4.04096287 C7.12239782,4.29257499 6.90293431,4.50760986 6.64938671,4.50491988 C6.39272266,4.50219709 6.19609123,4.3023508 6.19762405,4.04588358" id="Fill-189"></path>
            <path d="M11.5376338,23.572244 C11.5390533,23.3226986 11.7477241,23.1203264 12.0031744,23.1207848 C12.248488,23.1212449 12.4680827,23.3366078 12.4690709,23.577788 C12.4701494,23.8282848 12.2504891,24.0453208 11.9962854,24.0449604 C11.7342414,24.0445662 11.5361009,23.8403897 11.5376338,23.572244" id="Fill-191"></path>
            <path d="M11.5411988,0.486746441 C11.5500889,0.229295079 11.7617448,0.0220021188 12.0043357,0.0332213295 C12.2543404,0.0447685873 12.469408,0.272072421 12.4646185,0.51961676 C12.4598619,0.76479916 12.2371835,0.967073 11.9848825,0.955394523 C11.7214935,0.943191171 11.5323415,0.743410489 11.5411988,0.486746441" id="Fill-193"></path>
            <path d="M19.8745702,20.8759462 C19.8750614,21.1352346 19.663307,21.3485637 19.4075943,21.3463986 C19.1518816,21.3442006 18.9594492,21.1451417 18.9580982,20.8814246 C18.9568248,20.630403 19.1616902,20.4237333 19.4154018,20.420092 C19.6689166,20.4164178 19.8740773,20.6200695 19.8745702,20.8759462" id="Fill-196"></path>
            <path d="M16.3051411,5.3974737 C16.3060238,5.64416512 16.1095564,5.83416999 15.8519738,5.83581023 C15.5903563,5.83745047 15.3852284,5.63192896 15.3854906,5.36847434 C15.3857861,5.11948659 15.598623,4.91055339 15.8486605,4.91383386 C16.1003711,4.91714714 16.3041539,5.13306774 16.3051411,5.3974737" id="Fill-198"></path>
            <path d="M15.8503565,7.38701373 C15.8520296,7.63321308 15.655759,7.83056621 15.4060824,7.83374827 C15.1439071,7.83712715 14.9334649,7.63609989 14.9288723,7.37795963 C14.9244764,7.13080895 15.1336064,6.91137825 15.3762957,6.90845863 C15.6381757,6.90530938 15.8485195,7.11765426 15.8503565,7.38701373" id="Fill-200"></path>
            <path d="M19.4314171,14.4970343 C19.1628121,14.493393 18.9704781,14.2882324 18.9733321,14.008441 C18.9757925,13.7678184 19.1864971,13.5636091 19.428071,13.5677425 C19.6876875,13.572204 19.8908142,13.783007 19.8859591,14.0428859 C19.8810712,14.3060781 19.6864409,14.5005116 19.4314171,14.4970343" id="Fill-202"></path>
            <path d="M2.65722328,8.35050774 C2.65765059,8.10056866 2.86920816,7.89104497 3.11583397,7.89635934 C3.36980803,7.90180492 3.57749465,8.10726082 3.57765877,8.35323053 C3.5778227,8.60999299 3.36665878,8.82161617 3.11091326,8.82099426 C2.84329244,8.82036959 2.65676486,8.62692022 2.65722328,8.35050774" id="Fill-204"></path>
            <path d="M11.9949699,3.88682338 C12.2452371,3.88318206 12.4658159,4.10303922 12.4667703,4.35717731 C12.4676858,4.59360085 12.259868,4.80004089 12.0130453,4.80794682 C11.7690111,4.81572154 11.5459391,4.61364453 11.5407887,4.3801406 C11.5344902,4.09431317 11.7218707,3.89079275 11.9949699,3.88682338" id="Fill-206"></path>
            <path d="M14.0040648,0.213594745 C14.2600728,0.217367287 14.4746812,0.44690184 14.4674642,0.709208299 C14.4612641,0.934445436 14.2472134,1.13311076 14.0094776,1.13426464 C13.7498611,1.13553831 13.5375819,0.921881232 13.544274,0.666037301 C13.551163,0.402549873 13.7470399,0.209789399 14.0040648,0.213594745" id="Fill-208"></path>
            <path d="M1.14112823,8.55518616 C0.888171112,8.55118399 0.692720652,8.34877893 0.693701093,8.09188525 C0.694721739,7.83056293 0.904639076,7.6255663 1.16382909,7.63291456 C1.42009948,7.64013159 1.61623884,7.84243824 1.61351605,8.09667474 C1.61069484,8.35770181 1.40297542,8.55931956 1.14112823,8.55518616" id="Fill-210"></path>
            <path d="M5.77035499,2.03896361 C5.7801636,1.76478184 5.97918978,1.57618757 6.24736828,1.58691471 C6.48759717,1.59655929 6.69882669,1.81208624 6.69502134,2.0437531 C6.69085515,2.29920337 6.4697514,2.51279483 6.21663026,2.50593865 C5.95530795,2.49885283 5.76113687,2.29572607 5.77035499,2.03896361" id="Fill-212"></path>
            <path d="M19.8852703,10.0546862 C19.8854343,10.3200107 19.6910663,10.5193649 19.4354192,10.5161172 C19.1766885,10.5128367 18.9717575,10.3025257 18.9725425,10.041105 C18.9732665,9.79050984 19.1685201,9.59299268 19.4173439,9.59115561 C19.6817826,9.58918733 19.8851062,9.79064105 19.8852703,10.0546862" id="Fill-214"></path>
            <path d="M16.1409952,3.17628649 C16.1394776,3.41812281 15.9323814,3.61652569 15.6837546,3.61432778 C15.4227603,3.61196584 15.2133022,3.40014583 15.219043,3.14443312 C15.2247182,2.89137759 15.4353573,2.68519999 15.6824752,2.69074398 C15.9281168,2.69625517 16.1425612,2.92339498 16.1409952,3.17628649" id="Fill-216"></path>
            <path d="M16.9859933,6.59258864 C16.9882568,6.33631825 17.1943032,6.12899248 17.441257,6.13440526 C17.6900479,6.13988365 17.9035738,6.3659737 17.89967,6.61981655 C17.8957991,6.86827942 17.6950999,7.06468122 17.4461121,7.06357058 C17.183084,7.06241769 16.9836969,6.85830679 16.9859933,6.59258864" id="Fill-218"></path>
            <path d="M19.2538771,5.25874258 C19.254662,5.50976422 19.060819,5.70144214 18.8070746,5.7005269 C18.5468676,5.69957227 18.3370487,5.48906445 18.3402635,5.23220357 C18.3434784,4.97613001 18.5457194,4.77582445 18.7999887,4.77690264 C19.0506167,4.77792395 19.2530218,4.99282761 19.2538771,5.25874258" id="Fill-220"></path>
            <path d="M21.4333376,10.6254689 C21.17172,10.6251404 20.9776802,10.4243756 20.9766271,10.1529822 C20.9756791,9.89782716 21.175427,9.70185183 21.4365853,9.70175335 C21.6816693,9.70162219 21.8815155,9.91239245 21.8820745,10.1715825 C21.8826309,10.4419261 21.70086,10.6257965 21.4333376,10.6254689" id="Fill-222"></path>
            <path d="M21.2910341,19.4565684 C21.2838826,19.7245829 21.0750806,19.9359109 20.826913,19.9263647 C20.5724141,19.9165561 20.3778165,19.7105425 20.3822124,19.4556171 C20.3867394,19.1931794 20.5973457,18.9908728 20.8573558,18.9993036 C21.1074917,19.0074064 21.2976934,19.2079087 21.2910341,19.4565684" id="Fill-224"></path>
            <path d="M19.4308725,3.65975574 C19.1683036,3.66188805 18.9631758,3.46112322 18.9594688,3.19842311 C18.9558931,2.94510514 19.159676,2.73695926 19.4102384,2.73800505 C19.661588,2.73909156 19.8694715,2.95225657 19.8730472,3.21262755 C19.8764917,3.46040152 19.6814021,3.65772185 19.4308725,3.65975574" id="Fill-226"></path>
            <path d="M19.5406226,17.3753097 C19.5416114,17.1260595 19.7381116,16.9245074 19.983458,16.9208989 C20.2450756,16.9170935 20.4518108,17.1242553 20.4493177,17.3876771 C20.4468901,17.6429962 20.2399252,17.8561284 19.9960878,17.8544225 C19.7379476,17.8526182 19.5395119,17.6439147 19.5406226,17.3753097" id="Fill-228"></path>
            <path d="M20.4273484,15.7176648 C20.4244288,15.462969 20.6243079,15.2629587 20.8833338,15.2612434 C21.1361269,15.2596454 21.3374166,15.4627722 21.3384043,15.7205188 C21.3393849,15.9751161 21.1353396,16.1894293 20.890354,16.191168 C20.6351662,16.1929394 20.4303664,15.9835141 20.4273484,15.7176648" id="Fill-230"></path>
            <path d="M15.955243,1.6540233 C15.705304,1.65743499 15.4893178,1.45115898 15.4858077,1.20571414 C15.4821663,0.949673382 15.6795195,0.738837513 15.928376,0.73289986 C16.1855977,0.726732575 16.3994844,0.941865861 16.4045364,1.21184862 C16.4090634,1.45381616 16.2091187,1.65057881 15.955243,1.6540233" id="Fill-232"></path>
            <path d="M20.3844201,4.60979325 C20.3871757,4.35877162 20.5942719,4.15531681 20.8447686,4.15758033 C21.0902791,4.15984386 21.2929138,4.38225979 21.290683,4.64692819 C21.2884851,4.90579015 21.1035322,5.08470704 20.8425051,5.08047523 C20.5760652,5.07614501 20.3815333,4.87626591 20.3844201,4.60979325" id="Fill-234"></path>
            <path d="M23.8128086,14.045858 C23.8113904,14.3000289 23.6175473,14.5088637 23.3801397,14.5119474 C23.1171771,14.5153919 22.9042089,14.2966172 22.9096217,14.0286356 C22.9146408,13.7803367 23.1183581,13.5795719 23.3616378,13.5831148 C23.6208606,13.5868545 23.8142116,13.7851918 23.8128086,14.045858" id="Fill-236"></path>
            <path d="M10.4727691,4.6206713 C10.4709976,4.8638198 10.2553394,5.07242495 10.0066798,5.07150944 C9.75388666,5.07058789 9.54852917,4.86677223 9.54793692,4.61617705 C9.54724979,4.34967159 9.74781779,4.1456591 10.0085824,4.14759458 C10.2608178,4.14949725 10.4746061,4.36735333 10.4727691,4.6206713" id="Fill-238"></path>
            <path d="M23.0873806,12.0327577 C23.087479,11.771829 23.2843401,11.5766082 23.5452031,11.5787077 C23.7959295,11.5807088 23.9874434,11.786952 23.984819,12.0521453 C23.9822275,12.3138612 23.7956671,12.5075074 23.5471058,12.5063969 C23.2860459,12.5052439 23.0872822,12.3004441 23.0873806,12.0327577" id="Fill-240"></path>
            <path d="M21.8808168,13.9256747 C21.8773067,14.1824372 21.6862193,14.3847766 21.4459904,14.3861623 C21.1815516,14.3876634 20.972356,14.1736127 20.9748491,13.9040564 C20.9771783,13.6505088 21.1810267,13.4545007 21.4399871,13.456797 C21.6923866,13.4589949 21.8843925,13.663237 21.8808168,13.9256747" id="Fill-243"></path>
            <path d="M7.86176677,3.15655118 C7.86357103,2.89749238 8.06315488,2.68990418 8.31119129,2.68908219 C8.5619833,2.68832956 8.78886067,2.9150101 8.78321826,3.16071738 C8.77744463,3.41255913 8.57025009,3.61302871 8.31676809,3.61201562 C8.05377274,3.61099482 7.85996251,3.41698777 7.86176677,3.15655118" id="Fill-245"></path>
            <path d="M22.4408654,17.8278638 C22.4322049,18.0858072 22.2264538,18.2871954 21.9794999,18.2794534 C21.7221798,18.2713507 21.5335527,18.0613021 21.5397528,17.7897447 C21.545264,17.5489582 21.7563295,17.3436335 21.9950822,17.3467827 C22.2545018,17.3501944 22.4497883,17.5609647 22.4408654,17.8278638" id="Fill-247"></path>
            <path d="M16.8855569,4.04043799 C16.8844463,3.78177286 17.0790438,3.58540387 17.3382994,3.58368872 C17.5863359,3.58202498 17.8060946,3.80624517 17.8035358,4.05848058 C17.8011083,4.30579529 17.6034599,4.50170502 17.3536849,4.50442781 C17.0930186,4.50721621 16.8867098,4.30274445 16.8855569,4.04043799" id="Fill-249"></path>
            <path d="M20.8948811,8.82100658 C20.6292286,8.81995298 20.4304648,8.62141887 20.4292788,8.35602877 C20.4281029,8.09309902 20.6331323,7.89177652 20.8977679,7.89597552 C21.1358645,7.89974806 21.3393193,8.12206558 21.337187,8.37610525 C21.3350875,8.63444234 21.1485599,8.82198687 20.8948811,8.82100658" id="Fill-251"></path>
            <path d="M23.2900416,8.11414652 C23.2901727,8.36864546 23.1116167,8.55261427 22.8621697,8.55497621 C22.5927118,8.55750218 22.3892242,8.35106214 22.3907897,8.07681476 C22.3922094,7.8297625 22.5903171,7.6333607 22.8401577,7.63132681 C23.0953456,7.62929292 23.2899103,7.83806209 23.2900416,8.11414652" id="Fill-253"></path>
            <path d="M18.2285701,2.07665622 C18.2210578,2.32210106 18.0131415,2.51505836 17.7656628,2.50623389 C17.5039796,2.49691736 17.3032804,2.28493332 17.3117768,2.02689147 C17.3203061,1.76940731 17.5243514,1.57825427 17.7811466,1.58724276 C18.0293471,1.595936 18.236312,1.82235411 18.2285701,2.07665622" id="Fill-255"></path>
            <path d="M23.8104292,10.0548469 C23.8057381,10.3194825 23.6214413,10.503845 23.3665159,10.498793 C23.1034549,10.4936099 22.9076108,10.2886789 22.9095135,10.0206972 C22.9112849,9.77544919 23.1162815,9.57094463 23.3594957,9.57176229 C23.6146835,9.57268328 23.8151531,9.78742291 23.8104292,10.0548469" id="Fill-257"></path>
            <path d="M22.3889592,15.9676071 C22.3903461,15.7251803 22.5953099,15.5263182 22.8424934,15.5276239 C23.1030612,15.5289754 23.2957561,15.7252788 23.2919836,15.9855185 C23.288211,16.2488419 23.0925637,16.4571846 22.8491856,16.4570535 C22.588913,16.456955 22.3873937,16.2426418 22.3889592,15.9676071" id="Fill-259"></path>
            <path d="M21.5411046,6.26539118 C21.5402219,6.01381187 21.7352459,5.80766707 21.9771806,5.80448501 C22.2392903,5.80104052 22.4408424,6.01430394 22.4403512,6.29458738 C22.4398911,6.54918473 22.2593996,6.73092282 22.0082139,6.72968261 C21.7398386,6.72829844 21.542059,6.53176543 21.5411046,6.26539118" id="Fill-261"></path>
            <path d="M19.5428378,6.69579226 C19.5425102,6.43187837 19.7308421,6.2405941 19.9916067,6.23996953 C20.2520105,6.23938033 20.447953,6.44204783 20.4481171,6.71219461 C20.4482811,6.96938353 20.2637218,7.15673123 20.0075498,7.15942122 C19.7479661,7.16217681 19.5431663,6.95786908 19.5428378,6.69579226" id="Fill-263"></path>
        </g>
    </g>
</svg>